<svg width="600" height="600" viewBox="0 0 600 600" fill="none" xmlns="http://www.w3.org/2000/svg">
<rect width="600" height="600" fill="url(#paint0_linear_479_2)"/>
<g filter="url(#filter0_d_479_2)">
<path d="M150 79V411C195.767 411 212.955 374.459 215.829 356.189L215.045 136.943L338.866 135.377C353.755 135.116 385.573 144.304 393.723 183.142C393.723 231.375 357.151 241.868 338.866 241.085C320.057 241.346 279.463 241.711 267.551 241.085C255.639 240.458 251.617 246.044 251.094 248.915C247.437 269.535 240.436 311.243 241.69 313.123C250.467 304.979 266.245 300.333 273.037 299.028H348.27C385.364 293.547 459.238 262.696 457.984 183.142C456.73 103.587 384.319 80.566 348.27 79H150Z" fill="white"/>
</g>
<path d="M117.524 496.292V485.372H127.856C131.272 485.372 133.82 484.7 135.5 483.356C137.18 481.956 138.02 479.66 138.02 476.468C138.02 473.444 137.236 471.204 135.668 469.748C134.156 468.236 131.832 467.48 128.696 467.48H117.524V456.56H129.452C132.644 456.56 135.612 456.952 138.356 457.736C141.1 458.464 143.48 459.64 145.496 461.264C147.568 462.888 149.164 464.932 150.284 467.396C151.46 469.86 152.048 472.828 152.048 476.3C152.048 480.724 151.04 484.42 149.024 487.388C147.064 490.356 144.208 492.596 140.456 494.108C136.704 495.564 132.112 496.292 126.68 496.292H117.524ZM107.36 512V456.56H120.968V512H107.36ZM156.579 512V456.56H179.595C182.059 456.56 184.383 456.784 186.567 457.232C188.807 457.624 190.823 458.24 192.615 459.08C194.463 459.92 196.059 460.984 197.403 462.272C198.747 463.56 199.783 465.1 200.511 466.892C201.239 468.628 201.603 470.616 201.603 472.856C201.603 474.592 201.295 476.244 200.679 477.812C200.119 479.324 199.195 480.696 197.907 481.928C196.675 483.16 195.051 484.196 193.035 485.036C191.075 485.82 188.723 486.38 185.979 486.716V487.388C189.563 487.556 192.335 488.256 194.295 489.488C196.255 490.72 197.711 492.288 198.663 494.192C199.671 496.04 200.427 498.056 200.931 500.24L203.871 512H188.835L186.735 500.996C186.399 499.092 185.867 497.552 185.139 496.376C184.467 495.2 183.487 494.332 182.199 493.772C180.911 493.212 179.203 492.932 177.075 492.932H170.187V512H156.579ZM170.187 482.432H178.083C181.163 482.432 183.515 481.844 185.139 480.668C186.763 479.492 187.575 477.7 187.575 475.292C187.575 472.66 186.819 470.7 185.307 469.412C183.795 468.124 181.499 467.48 178.419 467.48H170.187V482.432ZM207.922 512V487.892V467.648H219.682V485.288H220.354C220.69 480.584 221.334 476.888 222.286 474.2C223.294 471.456 224.526 469.524 225.982 468.404C227.494 467.228 229.174 466.64 231.022 466.64C232.03 466.64 233.066 466.78 234.13 467.06C235.25 467.34 236.342 467.788 237.406 468.404L236.734 483.524C235.502 482.796 234.298 482.264 233.122 481.928C231.946 481.536 230.826 481.34 229.762 481.34C227.97 481.34 226.458 481.844 225.226 482.852C223.994 483.86 223.042 485.344 222.37 487.304C221.754 489.264 221.446 491.644 221.446 494.444V512H207.922ZM261.235 513.176C256.979 513.176 253.199 512.336 249.895 510.656C246.591 508.92 244.015 506.344 242.167 502.928C240.319 499.456 239.395 495.116 239.395 489.908C239.395 484.476 240.347 480.052 242.251 476.636C244.211 473.164 246.843 470.616 250.147 468.992C253.507 467.312 257.287 466.472 261.487 466.472C265.855 466.472 269.663 467.34 272.911 469.076C276.215 470.756 278.763 473.332 280.555 476.804C282.403 480.22 283.327 484.56 283.327 489.824C283.327 495.256 282.347 499.708 280.387 503.18C278.483 506.596 275.851 509.116 272.491 510.74C269.187 512.364 265.435 513.176 261.235 513.176ZM261.571 503.18C263.307 503.18 264.763 502.704 265.939 501.752C267.115 500.744 268.011 499.288 268.627 497.384C269.243 495.48 269.551 493.212 269.551 490.58C269.551 487.668 269.215 485.232 268.543 483.272C267.871 481.256 266.891 479.716 265.603 478.652C264.371 477.588 262.859 477.056 261.067 477.056C259.387 477.056 257.959 477.56 256.783 478.568C255.607 479.52 254.711 480.948 254.095 482.852C253.479 484.756 253.171 487.052 253.171 489.74C253.171 493.996 253.899 497.3 255.355 499.652C256.867 502.004 258.939 503.18 261.571 503.18ZM304.967 525.272C299.983 525.272 296.035 524.88 293.123 524.096C290.211 523.312 288.139 522.22 286.907 520.82C285.675 519.476 285.059 517.908 285.059 516.116C285.059 513.652 286.039 511.692 287.999 510.236C289.959 508.724 292.815 507.688 296.567 507.128V506.708C293.711 506.708 291.471 506.232 289.847 505.28C288.223 504.272 287.411 502.9 287.411 501.164C287.411 499.54 288.139 498.084 289.595 496.796C291.107 495.508 293.543 494.864 296.903 494.864V494.276C293.879 493.548 291.471 492.148 289.679 490.076C287.887 488.004 286.991 485.316 286.991 482.012C286.991 479.1 287.719 476.58 289.175 474.452C290.687 472.324 292.871 470.672 295.727 469.496C298.583 468.264 302.055 467.648 306.143 467.648H328.235V478.064L313.031 476.132V476.804C317.679 477.42 320.815 478.484 322.439 479.996C324.119 481.452 324.959 483.216 324.959 485.288C324.959 487.36 324.315 489.208 323.027 490.832C321.795 492.456 319.863 493.744 317.231 494.696C314.599 495.592 311.267 496.04 307.235 496.04C306.003 496.04 304.743 495.984 303.455 495.872C302.223 495.76 301.159 495.592 300.263 495.368C299.311 495.76 298.555 496.18 297.995 496.628C297.491 497.02 297.239 497.44 297.239 497.888C297.239 498.168 297.351 498.392 297.575 498.56C297.799 498.672 298.107 498.756 298.499 498.812C298.947 498.868 299.451 498.896 300.011 498.896H313.451C314.627 498.896 316.083 498.98 317.819 499.148C319.611 499.26 321.375 499.68 323.111 500.408C324.903 501.08 326.387 502.228 327.563 503.852C328.739 505.476 329.327 507.772 329.327 510.74C329.327 514.1 328.431 516.844 326.639 518.972C324.903 521.1 322.243 522.668 318.659 523.676C315.075 524.74 310.511 525.272 304.967 525.272ZM304.967 513.344C308.719 513.344 311.491 513.204 313.283 512.924C315.075 512.7 316.251 512.364 316.811 511.916C317.371 511.468 317.651 510.964 317.651 510.404C317.651 509.62 317.427 509.004 316.979 508.556C316.531 508.108 315.971 507.8 315.299 507.632C314.627 507.408 313.955 507.296 313.283 507.296C312.667 507.24 312.163 507.212 311.771 507.212H300.431C298.639 507.828 297.407 508.416 296.735 508.976C296.119 509.48 295.811 510.068 295.811 510.74C295.811 511.524 296.175 512.084 296.903 512.42C297.687 512.812 298.751 513.064 300.095 513.176C301.495 513.288 303.119 513.344 304.967 513.344ZM306.395 488.648C308.187 488.648 309.559 488.088 310.511 486.968C311.519 485.848 312.023 484.308 312.023 482.348C312.023 480.388 311.519 478.82 310.511 477.644C309.503 476.412 308.103 475.796 306.311 475.796C304.575 475.796 303.175 476.412 302.111 477.644C301.103 478.82 300.599 480.388 300.599 482.348C300.599 483.636 300.823 484.756 301.271 485.708C301.719 486.66 302.363 487.388 303.203 487.892C304.099 488.396 305.163 488.648 306.395 488.648ZM333.512 512V487.892V467.648H345.272V485.288H345.944C346.28 480.584 346.924 476.888 347.876 474.2C348.884 471.456 350.116 469.524 351.572 468.404C353.084 467.228 354.764 466.64 356.612 466.64C357.62 466.64 358.656 466.78 359.72 467.06C360.84 467.34 361.932 467.788 362.996 468.404L362.324 483.524C361.092 482.796 359.888 482.264 358.712 481.928C357.536 481.536 356.416 481.34 355.352 481.34C353.56 481.34 352.048 481.844 350.816 482.852C349.584 483.86 348.632 485.344 347.96 487.304C347.344 489.264 347.036 491.644 347.036 494.444V512H333.512ZM387.245 513.176C383.045 513.176 379.517 512.588 376.661 511.412C373.861 510.18 371.593 508.528 369.857 506.456C368.121 504.328 366.861 501.92 366.077 499.232C365.349 496.544 364.985 493.716 364.985 490.748C364.985 487.556 365.377 484.504 366.161 481.592C367.001 478.68 368.261 476.104 369.941 473.864C371.677 471.568 373.889 469.776 376.577 468.488C379.321 467.144 382.597 466.472 386.405 466.472C390.213 466.472 393.461 467.144 396.149 468.488C398.893 469.776 401.077 471.596 402.701 473.948C404.325 476.3 405.361 479.016 405.809 482.096C406.313 485.176 406.257 488.508 405.641 492.092L373.469 492.596V485.204L395.225 484.784L393.461 489.068C393.797 486.492 393.741 484.336 393.293 482.6C392.901 480.808 392.145 479.464 391.025 478.568C389.905 477.616 388.365 477.14 386.405 477.14C384.333 477.14 382.681 477.672 381.449 478.736C380.217 479.8 379.349 481.312 378.845 483.272C378.341 485.176 378.089 487.444 378.089 490.076C378.089 494.612 378.845 497.916 380.357 499.988C381.869 502.06 384.193 503.096 387.329 503.096C388.673 503.096 389.793 502.928 390.689 502.592C391.585 502.256 392.313 501.78 392.873 501.164C393.433 500.492 393.825 499.708 394.049 498.812C394.273 497.86 394.357 496.796 394.301 495.62L406.733 496.292C406.901 498.14 406.705 500.044 406.145 502.004C405.641 503.964 404.661 505.784 403.205 507.464C401.749 509.144 399.705 510.516 397.073 511.58C394.497 512.644 391.221 513.176 387.245 513.176ZM430.682 513.176C427.714 513.176 424.942 512.868 422.366 512.252C419.846 511.692 417.634 510.768 415.73 509.48C413.882 508.192 412.454 506.484 411.446 504.356C410.494 502.172 410.102 499.54 410.27 496.46L422.114 495.452C422.226 497.3 422.646 498.84 423.374 500.072C424.102 501.248 425.11 502.116 426.398 502.676C427.686 503.236 429.254 503.516 431.102 503.516C432.838 503.516 434.322 503.236 435.554 502.676C436.842 502.06 437.486 501.052 437.486 499.652C437.486 498.924 437.262 498.336 436.814 497.888C436.366 497.384 435.526 496.936 434.294 496.544C433.118 496.096 431.382 495.592 429.086 495.032C426.23 494.304 423.654 493.576 421.358 492.848C419.062 492.12 417.102 491.252 415.478 490.244C413.854 489.236 412.622 488.004 411.782 486.548C410.942 485.036 410.522 483.188 410.522 481.004C410.522 477.924 411.334 475.32 412.958 473.192C414.638 471.008 416.934 469.356 419.846 468.236C422.758 467.06 426.118 466.472 429.926 466.472C433.342 466.472 436.534 467.004 439.502 468.068C442.47 469.132 444.794 470.868 446.474 473.276C448.21 475.684 448.854 478.876 448.406 482.852L436.814 483.944C436.982 482.32 436.758 480.948 436.142 479.828C435.526 478.652 434.63 477.784 433.454 477.224C432.278 476.608 430.85 476.3 429.17 476.3C427.266 476.3 425.782 476.664 424.718 477.392C423.71 478.064 423.206 478.932 423.206 479.996C423.206 480.836 423.514 481.564 424.13 482.18C424.802 482.74 425.81 483.244 427.154 483.692C428.554 484.084 430.346 484.532 432.53 485.036C434.434 485.428 436.422 485.932 438.494 486.548C440.566 487.164 442.498 488.004 444.29 489.068C446.082 490.076 447.538 491.42 448.658 493.1C449.778 494.78 450.338 496.908 450.338 499.484C450.338 502.228 449.582 504.636 448.07 506.708C446.558 508.78 444.346 510.376 441.434 511.496C438.522 512.616 434.938 513.176 430.682 513.176ZM474.076 513.176C471.108 513.176 468.336 512.868 465.76 512.252C463.24 511.692 461.028 510.768 459.124 509.48C457.276 508.192 455.848 506.484 454.84 504.356C453.888 502.172 453.496 499.54 453.664 496.46L465.508 495.452C465.62 497.3 466.04 498.84 466.768 500.072C467.496 501.248 468.504 502.116 469.792 502.676C471.08 503.236 472.648 503.516 474.496 503.516C476.232 503.516 477.716 503.236 478.948 502.676C480.236 502.06 480.88 501.052 480.88 499.652C480.88 498.924 480.656 498.336 480.208 497.888C479.76 497.384 478.92 496.936 477.688 496.544C476.512 496.096 474.776 495.592 472.48 495.032C469.624 494.304 467.048 493.576 464.752 492.848C462.456 492.12 460.496 491.252 458.872 490.244C457.248 489.236 456.016 488.004 455.176 486.548C454.336 485.036 453.916 483.188 453.916 481.004C453.916 477.924 454.728 475.32 456.352 473.192C458.032 471.008 460.328 469.356 463.24 468.236C466.152 467.06 469.512 466.472 473.32 466.472C476.736 466.472 479.928 467.004 482.896 468.068C485.864 469.132 488.188 470.868 489.868 473.276C491.604 475.684 492.248 478.876 491.8 482.852L480.208 483.944C480.376 482.32 480.152 480.948 479.536 479.828C478.92 478.652 478.024 477.784 476.848 477.224C475.672 476.608 474.244 476.3 472.564 476.3C470.66 476.3 469.176 476.664 468.112 477.392C467.104 478.064 466.6 478.932 466.6 479.996C466.6 480.836 466.908 481.564 467.524 482.18C468.196 482.74 469.204 483.244 470.548 483.692C471.948 484.084 473.74 484.532 475.924 485.036C477.828 485.428 479.816 485.932 481.888 486.548C483.96 487.164 485.892 488.004 487.684 489.068C489.476 490.076 490.932 491.42 492.052 493.1C493.172 494.78 493.732 496.908 493.732 499.484C493.732 502.228 492.976 504.636 491.464 506.708C489.952 508.78 487.74 510.376 484.828 511.496C481.916 512.616 478.332 513.176 474.076 513.176Z" fill="white"/>
<g filter="url(#filter1_d_479_2)">
<path d="M368 366H235C235.696 361.543 237.228 352.067 237.785 349.815C238.342 347.563 240.339 347 241.267 347H368V366Z" fill="white"/>
</g>
<g filter="url(#filter2_d_479_2)">
<path d="M377 313.885V402.511C378.394 403.674 382.715 406 388.848 406C394.982 406 398.838 403.674 400 402.511V313.885C399.303 312.257 395.958 309 388.152 309C380.345 309 377.465 312.257 377 313.885Z" fill="white"/>
</g>
<g filter="url(#filter3_d_479_2)">
<path d="M407 319.23V395.978C408.212 396.986 411.97 399 417.303 399C422.636 399 425.99 396.986 427 395.978V319.23C426.394 317.82 423.485 315 416.697 315C409.909 315 407.404 317.82 407 319.23Z" fill="white"/>
</g>
<g filter="url(#filter4_d_479_2)">
<path d="M432 343.561V371.885C432.848 372.257 435.479 373 439.212 373C442.945 373 445.293 372.257 446 371.885V343.561C445.576 343.041 443.539 342 438.788 342C434.036 342 432.283 343.041 432 343.561Z" fill="white"/>
</g>
<defs>
<filter id="filter0_d_479_2" x="146" y="79" width="316" height="340" filterUnits="userSpaceOnUse" color-interpolation-filters="sRGB">
<feFlood flood-opacity="0" result="BackgroundImageFix"/>
<feColorMatrix in="SourceAlpha" type="matrix" values="0 0 0 0 0 0 0 0 0 0 0 0 0 0 0 0 0 0 127 0" result="hardAlpha"/>
<feOffset dy="4"/>
<feGaussianBlur stdDeviation="2"/>
<feComposite in2="hardAlpha" operator="out"/>
<feColorMatrix type="matrix" values="0 0 0 0 0 0 0 0 0 0 0 0 0 0 0 0 0 0 0.25 0"/>
<feBlend mode="normal" in2="BackgroundImageFix" result="effect1_dropShadow_479_2"/>
<feBlend mode="normal" in="SourceGraphic" in2="effect1_dropShadow_479_2" result="shape"/>
</filter>
<filter id="filter1_d_479_2" x="231" y="347" width="141" height="27" filterUnits="userSpaceOnUse" color-interpolation-filters="sRGB">
<feFlood flood-opacity="0" result="BackgroundImageFix"/>
<feColorMatrix in="SourceAlpha" type="matrix" values="0 0 0 0 0 0 0 0 0 0 0 0 0 0 0 0 0 0 127 0" result="hardAlpha"/>
<feOffset dy="4"/>
<feGaussianBlur stdDeviation="2"/>
<feComposite in2="hardAlpha" operator="out"/>
<feColorMatrix type="matrix" values="0 0 0 0 0 0 0 0 0 0 0 0 0 0 0 0 0 0 0.25 0"/>
<feBlend mode="normal" in2="BackgroundImageFix" result="effect1_dropShadow_479_2"/>
<feBlend mode="normal" in="SourceGraphic" in2="effect1_dropShadow_479_2" result="shape"/>
</filter>
<filter id="filter2_d_479_2" x="373" y="309" width="31" height="105" filterUnits="userSpaceOnUse" color-interpolation-filters="sRGB">
<feFlood flood-opacity="0" result="BackgroundImageFix"/>
<feColorMatrix in="SourceAlpha" type="matrix" values="0 0 0 0 0 0 0 0 0 0 0 0 0 0 0 0 0 0 127 0" result="hardAlpha"/>
<feOffset dy="4"/>
<feGaussianBlur stdDeviation="2"/>
<feComposite in2="hardAlpha" operator="out"/>
<feColorMatrix type="matrix" values="0 0 0 0 0 0 0 0 0 0 0 0 0 0 0 0 0 0 0.25 0"/>
<feBlend mode="normal" in2="BackgroundImageFix" result="effect1_dropShadow_479_2"/>
<feBlend mode="normal" in="SourceGraphic" in2="effect1_dropShadow_479_2" result="shape"/>
</filter>
<filter id="filter3_d_479_2" x="403" y="315" width="28" height="92" filterUnits="userSpaceOnUse" color-interpolation-filters="sRGB">
<feFlood flood-opacity="0" result="BackgroundImageFix"/>
<feColorMatrix in="SourceAlpha" type="matrix" values="0 0 0 0 0 0 0 0 0 0 0 0 0 0 0 0 0 0 127 0" result="hardAlpha"/>
<feOffset dy="4"/>
<feGaussianBlur stdDeviation="2"/>
<feComposite in2="hardAlpha" operator="out"/>
<feColorMatrix type="matrix" values="0 0 0 0 0 0 0 0 0 0 0 0 0 0 0 0 0 0 0.25 0"/>
<feBlend mode="normal" in2="BackgroundImageFix" result="effect1_dropShadow_479_2"/>
<feBlend mode="normal" in="SourceGraphic" in2="effect1_dropShadow_479_2" result="shape"/>
</filter>
<filter id="filter4_d_479_2" x="428" y="342" width="22" height="39" filterUnits="userSpaceOnUse" color-interpolation-filters="sRGB">
<feFlood flood-opacity="0" result="BackgroundImageFix"/>
<feColorMatrix in="SourceAlpha" type="matrix" values="0 0 0 0 0 0 0 0 0 0 0 0 0 0 0 0 0 0 127 0" result="hardAlpha"/>
<feOffset dy="4"/>
<feGaussianBlur stdDeviation="2"/>
<feComposite in2="hardAlpha" operator="out"/>
<feColorMatrix type="matrix" values="0 0 0 0 0 0 0 0 0 0 0 0 0 0 0 0 0 0 0.25 0"/>
<feBlend mode="normal" in2="BackgroundImageFix" result="effect1_dropShadow_479_2"/>
<feBlend mode="normal" in="SourceGraphic" in2="effect1_dropShadow_479_2" result="shape"/>
</filter>
<linearGradient id="paint0_linear_479_2" x1="-150.5" y1="-96.5" x2="528.5" y2="528.5" gradientUnits="userSpaceOnUse">
<stop stop-color="#406488"/>
<stop offset="0.913462" stop-color="#101922"/>
</linearGradient>
</defs>
</svg>
